# xmcd
#
# Track frame offsets: 
#        182
#        13972
#        26265
#        38050
#        47995
#        60175
#        72890
#        86092
#        98892
#        110050
#        123737
#        137727
#        151497
#        163975
#        173802
#        186550
#        198262
#        209140
#        221752
#        234155
#        248780
#        262640
#        275037
#
# Disc length: 3850 seconds
#
# Revision: 0
# Processed by: cddbd v1.5.1PL0 Copyright (c) Steve Scherf et al.
# Submitted via: ExactAudioCopy v0.95a5
#
DISCID=570f0817
DTITLE=Various Artist - The Complete No 1s of Country - Disk 4 (1944 - 1951)
DYEAR=1997
DGENRE=Country
TTITLE0=Bing Crosby and the Andrews Sisters - Pistol Packin' Mama
TTITLE1=Tex Williams - Smoke! Smoke! Smoke! (that cigarette)
TTITLE2=Tennessee Ernie Ford - The Shot Gun Boogie
TTITLE3=Eddy Arnold - I Wanna Play House With You
TTITLE4=Al Dexter and his Troupers - Wine, Women and Song
TTITLE5=Jack Guthrie - Oklahoma Hills
TTITLE6=Wesley Tuttle - With Tears in my Eyes
TTITLE7=Tex Ritter - I'm Wastin' My Tears On You
TTITLE8=Floyd Tillman - They Took The Stars Out Of Heaven
TTITLE9=Merle Travis - Divorce Me C.O.D.
TTITLE10=Wayne Raney - Why Don't You Haul Off and Love Me
TTITLE11=Moon Mullican - I'll Sail My Ship Alone
TTITLE12=Leon Payne - I Love You Because
TTITLE13=Margaret Whiting and Jimmy Wakely - Slipping Around
TTITLE14=The Delmore Brothers - Blues Stay Away From Me
TTITLE15=George Morgan - Candy Kisses
TTITLE16=Eddy Arnold - Bouquet of Roses
TTITLE17=Gene Autry - At Mail Call Today
TTITLE18=Bob Wills and his Texas Playboys - Smoke on the Water
TTITLE19=Ernest Tubb - Soldier's Last Letter
TTITLE20=Ernest Tubb and Red Foley - Goodnight Irene
TTITLE21=Jimmy Wakely - I Love You So Much It Hurts
TTITLE22=Tennessee Ernie Ford - Mule Train
EXTD=
EXTT0=
EXTT1=
EXTT2=
EXTT3=
EXTT4=
EXTT5=
EXTT6=
EXTT7=
EXTT8=
EXTT9=
EXTT10=
EXTT11=
EXTT12=
EXTT13=
EXTT14=
EXTT15=
EXTT16=
EXTT17=
EXTT18=
EXTT19=
EXTT20=
EXTT21=
EXTT22=
PLAYORDER=
